<svg width="45" height="45" viewBox="0 0 45 45" fill="none" xmlns="http://www.w3.org/2000/svg">
<g filter="url(#filter0_d_24_21)">
<circle cx="22.5" cy="18.4995" r="17.5513" fill="#D9D9D9"/>
<path d="M17.6998 26.5456C17.6998 26.6614 17.5653 26.754 17.3958 26.754C17.2028 26.7714 17.0683 26.6787 17.0683 26.5456C17.0683 26.4298 17.2028 26.3371 17.3724 26.3371C17.5478 26.3198 17.6998 26.4124 17.6998 26.5456ZM15.8815 26.285C15.8405 26.4008 15.9575 26.534 16.1329 26.5687C16.2849 26.6266 16.4603 26.5687 16.4954 26.4529C16.5304 26.3371 16.4194 26.204 16.244 26.1519C16.0919 26.1113 15.9224 26.1692 15.8815 26.285ZM18.4657 26.1866C18.2962 26.2271 18.1792 26.3371 18.1968 26.4703C18.2143 26.5861 18.3663 26.6614 18.5417 26.6208C18.7113 26.5803 18.8282 26.4703 18.8107 26.3545C18.7931 26.2445 18.6353 26.1692 18.4657 26.1866ZM22.3129 4C14.2034 4 8 10.0967 8 18.1272C8 24.5481 12.081 30.0426 17.9103 31.9764C18.6587 32.1096 18.9218 31.6522 18.9218 31.2758C18.9218 30.9169 18.9042 28.9368 18.9042 27.7209C18.9042 27.7209 14.8115 28.5894 13.952 25.9955C13.952 25.9955 13.2855 24.3107 12.3266 23.8765C12.3266 23.8765 10.9877 22.9674 12.4202 22.9848C12.4202 22.9848 13.876 23.1006 14.677 24.4786C15.9575 26.7135 18.1032 26.0708 18.9393 25.6887C19.0738 24.7623 19.4538 24.1196 19.8748 23.7375C16.6065 23.3785 13.3089 22.9096 13.3089 17.3397C13.3089 15.7475 13.7532 14.9485 14.6887 13.9295C14.5367 13.5532 14.0397 12.0015 14.8407 9.99825C16.0627 9.62191 18.875 11.5615 18.875 11.5615C20.0444 11.2373 21.3014 11.0694 22.5468 11.0694C23.7921 11.0694 25.0492 11.2373 26.2185 11.5615C26.2185 11.5615 29.0308 9.61613 30.2528 9.99825C31.0538 12.0073 30.5569 13.5532 30.4048 13.9295C31.3403 14.9543 31.9133 15.7533 31.9133 17.3397C31.9133 22.9269 28.4696 23.3727 25.2012 23.7375C25.7391 24.1949 26.1952 25.0634 26.1952 26.424C26.1952 28.3751 26.1776 30.7895 26.1776 31.2643C26.1776 31.6406 26.4466 32.098 27.1891 31.9648C33.0359 30.0426 37 24.5481 37 18.1272C37 10.0967 30.4224 4 22.3129 4ZM13.6831 23.9691C13.6071 24.027 13.6246 24.1602 13.724 24.2702C13.8175 24.3628 13.952 24.4033 14.028 24.3281C14.104 24.2702 14.0865 24.137 13.9871 24.027C13.8935 23.9343 13.7591 23.8938 13.6831 23.9691ZM13.0516 23.5001C13.0107 23.5754 13.0692 23.668 13.1861 23.7259C13.2796 23.7838 13.3966 23.7664 13.4375 23.6854C13.4784 23.6101 13.42 23.5175 13.303 23.4596C13.1861 23.4248 13.0925 23.4422 13.0516 23.5001ZM14.946 25.5613C14.8524 25.6366 14.8875 25.8103 15.022 25.9203C15.1565 26.0534 15.326 26.0708 15.402 25.9782C15.478 25.9029 15.4429 25.7292 15.326 25.6192C15.1974 25.486 15.022 25.4687 14.946 25.5613ZM14.2794 24.7102C14.1859 24.7681 14.1859 24.9186 14.2794 25.0518C14.373 25.185 14.5308 25.2428 14.6069 25.185C14.7004 25.1097 14.7004 24.9591 14.6069 24.826C14.525 24.6928 14.373 24.6349 14.2794 24.7102Z" fill="black"/>
</g>
<defs>
<filter id="filter0_d_24_21" x="0.94873" y="0.948242" width="43.1025" height="43.1025" filterUnits="userSpaceOnUse" color-interpolation-filters="sRGB">
<feFlood flood-opacity="0" result="BackgroundImageFix"/>
<feColorMatrix in="SourceAlpha" type="matrix" values="0 0 0 0 0 0 0 0 0 0 0 0 0 0 0 0 0 0 127 0" result="hardAlpha"/>
<feOffset dy="4"/>
<feGaussianBlur stdDeviation="2"/>
<feComposite in2="hardAlpha" operator="out"/>
<feColorMatrix type="matrix" values="0 0 0 0 0 0 0 0 0 0 0 0 0 0 0 0 0 0 0.25 0"/>
<feBlend mode="normal" in2="BackgroundImageFix" result="effect1_dropShadow_24_21"/>
<feBlend mode="normal" in="SourceGraphic" in2="effect1_dropShadow_24_21" result="shape"/>
</filter>
</defs>
</svg>
